{
  "asset": {
    "generator": "Khronos glTF Blender I/O v0.9.36",
    "version": "2.0"
  },
  "scene": 0,
  "scenes": [
    {
      "name": "Scene",
      "nodes": [0]
    }
  ],
  "nodes": [
    {
      "mesh": 0,
      "name": "labyrith_walls"
    }
  ],
  "materials": [
    {
      "doubleSided": true,
      "name": "(null)",
      "pbrMetallicRoughness": {
        "baseColorFactor": [
          0.800000011920929, 0.800000011920929, 0.800000011920929, 1
        ],
        "metallicFactor": 0,
        "roughnessFactor": 0.5
      }
    }
  ],
  "meshes": [
    {
      "name": "labyrith_walls",
      "primitives": [
        {
          "attributes": {
            "POSITION": 0,
            "NORMAL": 1
          },
          "indices": 2,
          "material": 0
        }
      ]
    }
  ],
  "accessors": [
    {
      "bufferView": 0,
      "componentType": 5126,
      "count": 636,
      "max": [15.27011775970459, 2.372952699661255, 0.3384854197502136],
      "min": [-1.8907828330993652, -5.001831959816627e-5, -19.63327407836914],
      "type": "VEC3"
    },
    {
      "bufferView": 1,
      "componentType": 5126,
      "count": 636,
      "type": "VEC3"
    },
    {
      "bufferView": 2,
      "componentType": 5123,
      "count": 1440,
      "type": "SCALAR"
    }
  ],
  "bufferViews": [
    {
      "buffer": 0,
      "byteLength": 7632,
      "byteOffset": 0
    },
    {
      "buffer": 0,
      "byteLength": 7632,
      "byteOffset": 7632
    },
    {
      "buffer": 0,
      "byteLength": 2880,
      "byteOffset": 15264
    }
  ],
  "buffers": [
    {
      "byteLength": 18144,
      "uri": "data:application/octet-stream;base64,"
    }
  ]
}
