<?xml version="1.0" encoding="utf-8"?>
<!-- Generator: Adobe Illustrator 25.4.1, SVG Export Plug-In . SVG Version: 6.00 Build 0)  -->
<svg version="1.1" id="Capa_1" xmlns="http://www.w3.org/2000/svg" xmlns:xlink="http://www.w3.org/1999/xlink" x="0px" y="0px"
	 viewBox="0 0 512 512" style="enable-background:new 0 0 512 512;" xml:space="preserve">
<style type="text/css">
	.st0{fill:#2EC4B6;}
</style>
<g>
	<g>
		<g>
			<path class="st0" d="M241,299.2V15.7C228.5,6.1,213,0,196,0c-29.7,0-55.6,16.5-70.3,51.3c-9.5,22.3-4.5,48.4,12.9,65.8
				c5.9,5.9,5.9,15.4,0,21.2c-5.8,5.8-15.3,5.9-21.2,0c-18-18-28.2-42.2-25.6-71.6C73.4,73,57,84.6,45.8,101.5
				C27.2,129.7,26.1,164,42,195.7C17.4,211.8,0,239.5,0,271c0,27.6,13.8,52.8,34.1,69.5c-6.3,28.5-0.1,57.4,18.7,79.3
				c10.7,12.4,24.3,20.9,39.1,26c-3.2-29.8,6.8-54.8,25.4-73.4c5.9-5.8,15.4-5.9,21.2,0c5.8,5.9,5.8,15.4,0,21.2
				C127.4,404.7,121,419.7,121,436c0,14.1,5.6,25,5.7,28.5c11.2,27.3,38,47.5,69.3,47.5c17,0,32.5-6.1,45-15.7V330.1
				c-32.9-3.7-63.4-19.4-85.5-44c-14.2,9.4-31.2,14.9-49.5,14.9c-8.3,0-15-6.7-15-15c0-8.3,6.7-15,15-15c33.1,0,60-26.9,60-60
				c0-8.3,6.7-15,15-15s15,6.7,15,15c0,20.3-7,38.8-18.3,53.8C194.2,283.5,216.5,295.6,241,299.2z"/>
		</g>
	</g>
	<g>
		<g>
			<path class="st0" d="M512,271c0-31.9-17.8-59.8-42.8-75.8c7.6-13.4,11.8-28.6,11.8-44.2c0-39.4-25.6-72.5-60.8-84.7
				c2.7,29.6-7.4,53.9-25.6,72c-5.9,5.9-15.4,5.8-21.2,0c-5.8-5.9-5.8-15.4,0-21.2c17.4-17.3,22.3-43.4,12.9-65.8
				C371.6,16.5,345.7,0,316,0c-17,0-32.5,6.1-45,15.7v283.5c24.5-3.6,46.8-15.7,63.3-34.4C323,249.8,316,231.3,316,211
				c0-8.3,6.7-15,15-15c8.3,0,15,6.7,15,15c0,33.1,26.9,60,60,60c8.3,0,15,6.7,15,15c0,8.3-6.7,15-15,15c-18.3,0-35.3-5.5-49.5-15
				c-22.1,24.7-52.6,40.3-85.5,44v166.2c12.5,9.6,28,15.7,45,15.7c31.3,0,58-20.3,69.3-47.6c0.2-3.4,5.7-14.4,5.7-28.4
				c0-16.3-6.4-31.3-17.6-42.4c-5.9-5.9-5.9-15.4,0-21.2c5.9-5.9,15.4-5.9,21.2,0c18.6,18.6,28.6,43.6,25.4,73.4
				c14.8-5.1,28.4-13.5,39.1-25.9c18.9-21.9,25.1-50.8,18.7-79.3C498.2,323.8,512,298.6,512,271z"/>
		</g>
	</g>
</g>
</svg>
